<?xml version="1.0" encoding="iso-8859-1"?>
<!-- Generator: Adobe Illustrator 19.0.0, SVG Export Plug-In . SVG Version: 6.00 Build 0)  -->
<svg version="1.1" id="Layer_1" xmlns="http://www.w3.org/2000/svg" xmlns:xlink="http://www.w3.org/1999/xlink" x="0px" y="0px"
	 viewBox="0 0 512.002 512.002" style="enable-background:new 0 0 512.002 512.002;" xml:space="preserve">
<path style="fill:#95D6A6;" d="M418.91,201.923c-7.464-3.556-15.239-6.555-23.273-8.954c-7.543-2.254-15.317-3.973-23.273-5.117
	c-7.604-1.092-15.371-1.669-23.273-1.669c-64.856,0-120.976,38.102-147.169,93.091c-3.555,7.464-6.554,15.239-8.954,23.273
	c-2.254,7.543-3.973,15.317-5.117,23.273c-1.092,7.604-1.669,15.371-1.669,23.273c0,89.828,73.081,162.909,162.909,162.909
	s162.909-73.081,162.909-162.909C512.001,284.234,473.9,228.115,418.91,201.923z M395.637,372.364h-23.273v23.273
	c0,12.853-10.42,23.273-23.273,23.273s-23.273-10.42-23.273-23.273v-23.273h-23.273c-12.853,0-23.273-10.42-23.273-23.273
	c0-12.853,10.42-23.273,23.273-23.273h23.273v-23.273c0-12.853,10.42-23.273,23.273-23.273s23.273,10.42,23.273,23.273v23.273
	h23.273c12.853,0,23.273,10.42,23.273,23.273C418.91,361.944,408.49,372.364,395.637,372.364z"/>
<path style="fill:#F6E27D;" d="M418.908,23.229c0.011,7.204-3.325,14.175-9.308,18.662l-13.964,10.473l-23.273,17.455
	L223.419,181.527c-4.138,3.103-9.05,4.655-13.964,4.655s-9.826-1.552-13.964-4.655L46.546,69.818L23.274,52.364L9.31,41.891
	c-5.983-4.489-9.318-11.459-9.308-18.662c0,0.014-0.002,0.029-0.002,0.043v279.273c0,12.853,10.42,23.273,23.273,23.273h164.579
	c1.143-7.956,2.863-15.729,5.117-23.273c2.4-8.034,5.398-15.808,8.954-23.273c2.284-4.796,4.81-9.452,7.533-13.974
	c28.526-47.36,80.435-79.116,139.636-79.116c7.902,0,15.669,0.577,23.273,1.669c7.956,1.143,15.729,2.863,23.273,5.117
	c8.034,2.4,15.808,5.398,23.273,8.954V23.273C418.91,23.259,418.908,23.243,418.908,23.229z"/>
<path style="fill:#F2D23D;" d="M418.8,21.077c-0.022-0.219-0.054-0.433-0.081-0.652c-0.059-0.476-0.13-0.948-0.217-1.417
	c-0.053-0.287-0.112-0.571-0.175-0.856c-0.088-0.394-0.192-0.782-0.299-1.17c-0.085-0.299-0.163-0.6-0.261-0.898
	c-0.019-0.056-0.031-0.115-0.05-0.171c-0.121-0.365-0.267-0.715-0.405-1.071c-0.13-0.332-0.261-0.664-0.403-0.988
	c-0.225-0.507-0.461-1.007-0.721-1.496c-0.118-0.223-0.25-0.436-0.375-0.655c-0.225-0.391-0.455-0.779-0.7-1.154
	c-0.137-0.209-0.281-0.416-0.424-0.621c-0.267-0.38-0.546-0.754-0.836-1.119c-0.138-0.174-0.275-0.352-0.419-0.521
	c-0.363-0.43-0.743-0.846-1.136-1.249c-0.085-0.088-0.163-0.182-0.248-0.267c-0.484-0.481-0.99-0.937-1.513-1.375
	c-0.152-0.126-0.309-0.239-0.464-0.362c-0.375-0.296-0.757-0.586-1.151-0.861c-0.222-0.155-0.447-0.299-0.673-0.447
	c-0.349-0.225-0.703-0.438-1.063-0.644c-0.247-0.143-0.493-0.285-0.746-0.419c-0.388-0.203-0.788-0.391-1.192-0.573
	c-0.225-0.102-0.442-0.216-0.67-0.309c-0.597-0.248-1.207-0.47-1.829-0.67c-0.253-0.082-0.514-0.146-0.771-0.22
	c-0.419-0.118-0.841-0.231-1.269-0.326c-0.272-0.061-0.546-0.115-0.821-0.166c-0.456-0.084-0.915-0.152-1.381-0.209
	c-0.24-0.031-0.479-0.064-0.721-0.088C397.078,0.043,396.363,0,395.637,0H209.455H23.274c-0.726,0-1.441,0.043-2.149,0.107
	c-0.242,0.025-0.481,0.057-0.721,0.088c-0.465,0.057-0.925,0.126-1.381,0.209c-0.276,0.051-0.549,0.106-0.821,0.166
	c-0.428,0.095-0.85,0.208-1.269,0.326c-0.258,0.074-0.518,0.138-0.773,0.22c-0.619,0.2-1.23,0.42-1.828,0.67
	c-0.227,0.093-0.445,0.205-0.669,0.309c-0.403,0.182-0.804,0.369-1.192,0.573c-0.253,0.133-0.5,0.276-0.746,0.419
	c-0.36,0.205-0.714,0.419-1.063,0.642c-0.225,0.147-0.451,0.293-0.673,0.447C9.595,4.451,9.214,4.74,8.838,5.038
	C8.683,5.16,8.526,5.274,8.374,5.399C7.853,5.838,7.346,6.294,6.863,6.774C6.778,6.859,6.7,6.952,6.615,7.041
	C6.221,7.444,5.842,7.858,5.478,8.29C5.335,8.46,5.198,8.637,5.059,8.813C4.769,9.176,4.491,9.548,4.224,9.93
	c-0.144,0.205-0.289,0.411-0.425,0.622c-0.245,0.374-0.475,0.762-0.7,1.153c-0.126,0.219-0.258,0.431-0.375,0.655
	c-0.261,0.487-0.496,0.988-0.721,1.496c-0.143,0.324-0.273,0.656-0.403,0.987c-0.138,0.355-0.284,0.706-0.405,1.071
	c-0.02,0.056-0.033,0.115-0.05,0.171c-0.098,0.298-0.175,0.599-0.261,0.898c-0.107,0.388-0.213,0.776-0.299,1.17
	c-0.064,0.285-0.123,0.569-0.175,0.856c-0.087,0.469-0.158,0.94-0.217,1.417c-0.026,0.219-0.059,0.433-0.081,0.652
	c-0.067,0.709-0.107,1.426-0.109,2.152c-0.011,7.204,3.325,14.175,9.308,18.663l13.964,10.473l23.273,17.455l148.945,111.709
	c4.138,3.103,9.05,4.655,13.964,4.655s9.826-1.552,13.964-4.655L372.364,69.818l23.273-17.455l13.964-10.473
	c5.983-4.489,9.318-11.459,9.308-18.662C418.907,22.503,418.866,21.786,418.8,21.077z"/>
<path style="fill:#368B4C;" d="M395.637,325.818h-23.273v-23.273c0-12.853-10.42-23.273-23.273-23.273s-23.273,10.42-23.273,23.273
	v23.273h-23.273c-12.853,0-23.273,10.42-23.273,23.273c0,12.853,10.42,23.273,23.273,23.273h23.273v23.273
	c0,12.853,10.42,23.273,23.273,23.273s23.273-10.42,23.273-23.273v-23.273h23.273c12.853,0,23.273-10.42,23.273-23.273
	C418.91,336.238,408.49,325.818,395.637,325.818z"/>
<path style="fill:#F5DC60;" d="M195.492,181.527L46.546,69.818L23.274,52.364L9.31,41.891c-5.983-4.489-9.318-11.459-9.308-18.662
	c0,0.014-0.002,0.029-0.002,0.043v279.273c0,12.853,10.42,23.273,23.273,23.273h164.579c1.143-7.956,2.863-15.729,5.117-23.273
	c2.4-8.034,5.398-15.808,8.954-23.273c2.284-4.796,4.81-9.452,7.533-13.974v-79.116C204.542,186.182,199.63,184.63,195.492,181.527z
	"/>
<path style="fill:#EEBF00;" d="M9.31,41.891l13.964,10.473l23.273,17.455l148.945,111.709c4.138,3.103,9.05,4.655,13.964,4.655V0
	H23.274c-0.726,0-1.441,0.043-2.149,0.107c-0.242,0.025-0.479,0.057-0.721,0.088c-0.465,0.057-0.925,0.126-1.381,0.209
	c-0.276,0.051-0.549,0.106-0.821,0.168c-0.428,0.093-0.85,0.208-1.269,0.326c-0.258,0.074-0.518,0.138-0.773,0.22
	c-0.619,0.2-1.23,0.42-1.828,0.67c-0.227,0.092-0.445,0.203-0.669,0.307c-0.403,0.182-0.804,0.369-1.192,0.573
	c-0.253,0.133-0.5,0.276-0.748,0.419c-0.358,0.206-0.714,0.419-1.063,0.644c-0.223,0.146-0.45,0.292-0.672,0.445
	C9.595,4.451,9.214,4.74,8.838,5.038C8.683,5.16,8.526,5.274,8.374,5.399C7.853,5.838,7.346,6.294,6.863,6.774
	C6.778,6.859,6.699,6.952,6.615,7.041C6.221,7.444,5.842,7.858,5.478,8.29C5.335,8.46,5.198,8.637,5.059,8.813
	C4.769,9.176,4.491,9.548,4.224,9.93c-0.144,0.205-0.289,0.411-0.425,0.622c-0.245,0.374-0.475,0.762-0.7,1.153
	c-0.126,0.219-0.258,0.431-0.375,0.655c-0.261,0.487-0.496,0.987-0.721,1.496c-0.143,0.324-0.273,0.655-0.403,0.987
	c-0.138,0.357-0.284,0.706-0.405,1.071c-0.02,0.056-0.033,0.115-0.05,0.171c-0.098,0.298-0.175,0.599-0.261,0.898
	c-0.107,0.388-0.213,0.776-0.299,1.17c-0.064,0.285-0.123,0.569-0.175,0.856c-0.087,0.469-0.158,0.94-0.217,1.417
	c-0.026,0.219-0.059,0.433-0.081,0.652c-0.067,0.709-0.107,1.426-0.109,2.152C-0.009,30.431,3.327,37.402,9.31,41.891z"/>
<path style="fill:#64C37D;" d="M201.923,279.273c-3.555,7.464-6.554,15.239-8.954,23.273c-2.254,7.543-3.973,15.317-5.117,23.273
	c-1.092,7.604-1.669,15.371-1.669,23.273c0,89.828,73.079,162.909,162.909,162.909v-93.091c-12.853,0-23.273-10.42-23.273-23.273
	v-23.273h-23.273c-12.853,0-23.273-10.42-23.273-23.273c0-12.853,10.42-23.273,23.273-23.273h23.273v-23.273
	c0-12.853,10.42-23.273,23.273-23.273v-93.091C284.235,186.182,228.115,224.284,201.923,279.273z"/>
<g>
</g>
<g>
</g>
<g>
</g>
<g>
</g>
<g>
</g>
<g>
</g>
<g>
</g>
<g>
</g>
<g>
</g>
<g>
</g>
<g>
</g>
<g>
</g>
<g>
</g>
<g>
</g>
<g>
</g>
</svg>
